<svg width="33" height="32" viewBox="0 0 33 32" fill="none" xmlns="http://www.w3.org/2000/svg">
<g clip-path="url(#clip0_245_1102)">
<path d="M16 0C7.19996 0 -6.10352e-05 7.21286 -6.10352e-05 16.0964C-6.10352e-05 24.1287 5.85595 30.7952 13.5039 32V20.7552H9.43994V16.0964H13.5039V12.5462C13.5039 8.51407 15.888 6.2972 19.552 6.2972C21.296 6.2972 23.12 6.60241 23.12 6.60241V10.5703H21.104C19.12 10.5703 18.496 11.8072 18.496 13.0763V16.0964H22.944L22.224 20.7552H18.496V32C22.2663 31.4023 25.6994 29.4709 28.1758 26.5543C30.6521 23.6379 32.0085 19.9288 32 16.0964C32 7.21286 24.8 0 16 0Z" fill="white"/>
</g>
<defs>
<clipPath id="clip0_245_1102">
<rect width="32" height="32" fill="white" transform="translate(0.5)"/>
</clipPath>
</defs>
</svg>
