<svg width="24" height="23" viewBox="0 0 24 23" fill="none" xmlns="http://www.w3.org/2000/svg">
<path d="M11.1666 1.47943C12.7474 1.47943 14.2335 2.09488 15.3512 3.21259C16.4689 4.3303 17.0844 5.81639 17.0844 7.39716C17.0844 9.54456 14.8349 14.6323 11.1666 20.8223C7.49838 14.6323 5.2489 9.54456 5.2489 7.39716C5.2489 5.81639 5.86435 4.3303 6.98206 3.21259C8.09977 2.09488 9.58586 1.47943 11.1666 1.47943ZM11.1666 0C9.12428 0 7.27499 0.827743 5.9361 2.16663C4.59721 3.50552 3.76947 5.35481 3.76947 7.39716C3.76947 11.1505 8.74406 19.692 10.5342 22.6442C10.6681 22.8654 10.9077 23 11.1666 23C11.4255 23 11.6645 22.8646 11.7991 22.6435C13.5899 19.6912 18.5638 11.1505 18.5638 7.39716C18.5638 5.35481 17.7361 3.50552 16.3972 2.16663C15.0583 0.827743 13.209 0 11.1666 0ZM11.1666 10.356C9.5326 10.356 8.20777 9.0312 8.20777 7.39716C8.20777 5.76313 9.5326 4.4383 11.1666 4.4383C12.8007 4.4383 14.1255 5.76313 14.1255 7.39716C14.1255 9.0312 12.8007 10.356 11.1666 10.356Z" fill="white"/>
</svg>
