<svg width="22" height="23" viewBox="0 0 22 23" fill="none" xmlns="http://www.w3.org/2000/svg">
<g clip-path="url(#clip0_204_510)">
<path d="M7.5625 7.375C9.46 7.375 11 5.83638 11 3.9375C11 2.03862 9.46 0.5 7.5625 0.5C5.66225 0.5 4.125 2.03862 4.125 3.9375C4.125 5.83638 5.66225 7.375 7.5625 7.375ZM13.0625 8.75C13.0625 7.23131 14.2938 6 15.8125 6C17.3312 6 18.5625 7.23131 18.5625 8.75C18.5625 10.2687 17.3312 11.5 15.8125 11.5C14.2938 11.5 13.0625 10.2687 13.0625 8.75ZM1.375 14.9375V20.4375C1.375 21.5767 2.29831 22.5 3.4375 22.5H4.125H6.1875H7.5625H9.625H11H13.75H18.5625C19.7017 22.5 20.625 21.5767 20.625 20.4375V17.6875C20.625 15.0296 18.4704 12.875 15.8125 12.875C14.9978 12.875 14.2313 13.0792 13.5589 13.4367C12.8872 10.7458 10.461 8.75 7.5625 8.75C4.14494 8.75 1.375 11.5199 1.375 14.9375Z" fill="#495E57"/>
</g>
<defs>
<clipPath id="clip0_204_510">
<rect width="22" height="22" fill="white" transform="translate(0 0.5)"/>
</clipPath>
</defs>
</svg>
