<svg width="22" height="23" viewBox="0 0 22 23" fill="none" xmlns="http://www.w3.org/2000/svg">
<g clip-path="url(#clip0_154_660)">
<path d="M12.3946 6.35544L14.3141 4.43594C14.6056 4.14444 14.7506 3.73812 14.7101 3.32837C14.6695 2.91862 14.4474 2.54806 14.1044 2.31981L11.7215 0.731C11.6143 0.6595 11.4967 0.606562 11.375 0.567375V0.5H10.9584H9.04094H8.625V0.567375C8.50331 0.605875 8.38575 0.6595 8.2785 0.731L5.89562 2.31981C5.55256 2.54806 5.3305 2.91794 5.28994 3.32837C5.24938 3.73812 5.39444 4.14444 5.68594 4.43594L7.60544 6.35544C4.21744 7.38188 1.75 10.5265 1.75 14.25C1.75 18.8061 5.44394 22.5 10 22.5C14.5561 22.5 18.25 18.8061 18.25 14.25C18.25 10.5265 15.7826 7.38188 12.3946 6.35544ZM13.3419 3.46381L11.375 5.43075V2.15275L13.3419 3.46381ZM8.625 2.15275V5.43075L6.65806 3.46381L8.625 2.15275ZM10 21.125C6.20913 21.125 3.125 18.0409 3.125 14.25C3.125 10.4591 6.20913 7.375 10 7.375C13.7909 7.375 16.875 10.4591 16.875 14.25C16.875 18.0409 13.7909 21.125 10 21.125Z" fill="#495E57"/>
</g>
<defs>
<clipPath id="clip0_154_660">
<rect width="22" height="22" fill="white" transform="translate(0 0.5)"/>
</clipPath>
</defs>
</svg>
