<svg width="40" height="30" viewBox="0 0 40 30" fill="none" xmlns="http://www.w3.org/2000/svg">
<path fill-rule="evenodd" clip-rule="evenodd" d="M6.44783 26.3908C5.87385 26.9648 5.84824 27.8698 6.39063 28.4122C6.93302 28.9546 7.83803 28.9289 8.41201 28.355L19.9014 16.8656L31.3908 28.355C31.9647 28.9289 32.8698 28.9546 33.4122 28.4122C33.9546 27.8698 33.9289 26.9647 33.355 26.3908L21.8656 14.9014L33.355 3.41197C33.9289 2.83807 33.9546 1.93298 33.4122 1.39059C32.8698 0.848197 31.9647 0.873889 31.3908 1.44779L19.9014 12.9372L8.412 1.44782C7.83802 0.873842 6.93301 0.848234 6.39061 1.39062C5.84822 1.93301 5.87383 2.83803 6.44781 3.41201L17.9372 14.9014L6.44783 26.3908Z" fill="#495E57"/>
</svg>
