<svg width="22" height="23" viewBox="0 0 22 23" fill="none" xmlns="http://www.w3.org/2000/svg">
<g clip-path="url(#clip0_204_670)">
<path d="M19.2514 3.50231L19.2507 1.87431C19.25 1.11531 18.6347 0.5 17.8757 0.5H16.5C15.741 0.5 15.125 1.11531 15.125 1.875V3.25H6.875V1.875C6.875 1.11531 6.259 0.5 5.5 0.5H4.125C3.366 0.5 2.75 1.11531 2.75 1.875V3.50231C1.15225 4.07019 0 5.58131 0 7.375V18.375C0 20.6534 1.84663 22.5 4.125 22.5H17.875C20.1534 22.5 22 20.6534 22 18.375V7.375C22 5.58131 20.8491 4.07156 19.2514 3.50231ZM16.5 1.875H17.875V4.625H16.5V1.875ZM4.125 1.875H4.12637H5.5V4.625H4.12637H4.125V1.875ZM20.625 18.375C20.625 19.8951 19.3923 21.125 17.875 21.125H4.125C2.60769 21.125 1.375 19.8951 1.375 18.375V7.375H20.625V18.375Z" fill="#495E57"/>
<rect x="5.78943" y="12.0789" width="5.78947" height="5.78947" fill="#495E57"/>
</g>
<defs>
<clipPath id="clip0_204_670">
<rect width="22" height="22" fill="white" transform="translate(0 0.5)"/>
</clipPath>
</defs>
</svg>
