<svg width="17" height="11" viewBox="0 0 17 11" fill="none" xmlns="http://www.w3.org/2000/svg">
<path d="M6.12 2.46C6.52 2.04 6.68 1.66 6.68 1.36C6.68 0.739999 6.1 0.359999 5.5 0.359999C5.16 0.359999 4.82 0.479999 4.54 0.78L1.56 3.8C1.16 4.2 0.96 4.74 0.96 5.24C0.96 5.76 1.16 6.26 1.54 6.66L4.5 9.64C4.78 9.92 5.14 10.04 5.46 10.04C6.06 10.04 6.64 9.66 6.64 9.06C6.64 8.74 6.5 8.36 6.1 7.94L4.7 6.52H15.02C15.68 6.52 16.22 5.98 16.22 5.28C16.22 4.62 15.68 4.08 15.02 4.08H4.54L6.12 2.46Z" fill="white"/>
</svg>
