<svg width="24" height="23" viewBox="0 0 24 23" fill="none" xmlns="http://www.w3.org/2000/svg">
<g clip-path="url(#clip0_245_1082)">
<path d="M22.8236 4.89375C22.0076 3.7515 20.6771 3 19.1666 3H4.16663C2.65538 3 1.32488 3.7515 0.509626 4.89375C-0.0168741 5.631 -0.333374 6.52575 -0.333374 7.5V16.5C-0.333374 18.9847 1.68113 21 4.16663 21H19.1666C21.6514 21 23.6666 18.9847 23.6666 16.5V7.5C23.6666 6.52575 23.3494 5.631 22.8236 4.89375ZM4.16663 4.5H19.1666C19.6564 4.5 20.1124 4.629 20.5211 4.83825L11.6891 12.0045L2.81963 4.83375C3.22688 4.62675 3.67988 4.5 4.16663 4.5ZM22.1666 16.5C22.1666 18.1545 20.8211 19.5 19.1666 19.5H4.16663C2.51138 19.5 1.16588 18.1545 1.16588 16.5V7.5C1.16588 6.88425 1.35413 6.312 1.67288 5.83575L10.7456 13.1715C11.0156 13.3898 11.3411 13.5 11.6659 13.5C11.9914 13.5 12.3161 13.3898 12.5869 13.1715L21.6596 5.83575C21.9791 6.312 22.1666 6.88425 22.1666 7.5V16.5Z" fill="white"/>
</g>
<defs>
<clipPath id="clip0_245_1082">
<rect width="23" height="23" fill="white" transform="translate(0.166626)"/>
</clipPath>
</defs>
</svg>
