<svg width="24" height="23" viewBox="0 0 24 23" fill="none" xmlns="http://www.w3.org/2000/svg">
<g clip-path="url(#clip0_245_1074)">
<path d="M6.65615 16.5098C6.7335 16.5825 7.47667 17.2732 7.98225 17.6895C12.5048 21.4191 18.2982 23.423 19.4494 22.9248C22.8493 21.4514 23.3402 20.664 23.1229 20.1759C22.4681 18.7015 18.5542 16.274 17.6554 16.3099C16.2713 16.3643 15.6479 18.0192 14.5317 18.1969C13.795 18.3148 9.93549 15.8394 8.62044 14.5464C7.32749 13.2314 4.85209 9.37185 4.96997 8.63512C5.1477 7.51898 6.80257 6.89461 6.8569 5.51141C6.8919 4.61261 4.46439 0.699678 2.99094 0.0439927C2.50286 -0.173341 1.71549 0.318422 0.242038 3.71748C-0.257093 4.86862 1.74772 10.662 5.47739 15.1846C5.89271 15.6893 6.58339 16.4324 6.65615 16.5098Z" fill="white"/>
</g>
<defs>
<clipPath id="clip0_245_1074">
<rect width="23" height="23" fill="white" transform="translate(0.166626)"/>
</clipPath>
</defs>
</svg>
