<svg width="22" height="22" viewBox="0 0 22 22" fill="none" xmlns="http://www.w3.org/2000/svg">
<g clip-path="url(#clip0_206_1237)">
<path d="M11 1.46667C16.2565 1.46667 20.5333 5.74347 20.5333 11C20.5333 16.2565 16.2565 20.5333 11 20.5333C5.74347 20.5333 1.46667 16.2565 1.46667 11C1.46667 5.74347 5.74347 1.46667 11 1.46667ZM11 0C4.92507 0 0 4.92507 0 11C0 17.0749 4.92507 22 11 22C17.0749 22 22 17.0749 22 11C22 4.92507 17.0749 0 11 0ZM15.6537 15.6332C15.6684 15.4389 15.6061 15.2475 15.4792 15.0993L11.7333 10.7287V5.13333C11.7333 4.72853 11.4048 4.4 11 4.4C10.5952 4.4 10.2667 4.72853 10.2667 5.13333V11C10.2667 11.1753 10.329 11.3447 10.4434 11.4774L14.366 16.0541C14.6293 16.3614 15.092 16.3966 15.4 16.1333C15.5474 16.0072 15.6391 15.8268 15.6537 15.6332Z" fill="#495E57"/>
</g>
<defs>
<clipPath id="clip0_206_1237">
<rect width="22" height="22" fill="white"/>
</clipPath>
</defs>
</svg>
