<svg width="22" height="23" viewBox="0 0 22 23" fill="none" xmlns="http://www.w3.org/2000/svg">
<g clip-path="url(#clip0_174_1667)">
<path d="M19.2514 3.50231L19.2507 1.87431C19.25 1.11531 18.6347 0.5 17.8757 0.5H16.5C15.741 0.5 15.125 1.11531 15.125 1.875V3.25H6.875V1.875C6.875 1.11531 6.259 0.5 5.5 0.5H4.125C3.366 0.5 2.75 1.11531 2.75 1.875V3.50231C1.15225 4.07019 0 5.58131 0 7.375V18.375C0 20.6534 1.84663 22.5 4.125 22.5H17.875C20.1534 22.5 22 20.6534 22 18.375V7.375C22 5.58131 20.8491 4.07156 19.2514 3.50231ZM16.5 1.875H17.875V4.625H16.5V1.875ZM4.125 1.875H4.12637H5.5V4.625H4.12637H4.125V1.875ZM20.625 18.375C20.625 19.8951 19.3923 21.125 17.875 21.125H4.125C2.60769 21.125 1.375 19.8951 1.375 18.375V7.375H20.625V18.375ZM4.92319 13.7564C4.85856 13.6917 4.82281 13.6044 4.82281 13.5137C4.82281 13.4223 4.85925 13.3349 4.92319 13.2703L5.40925 12.7843C5.54331 12.6502 5.76125 12.6502 5.89531 12.7843L9.54113 16.4301L16.104 9.86719C16.1686 9.80256 16.2559 9.76681 16.3474 9.76681C16.4388 9.76681 16.5261 9.80325 16.5907 9.86719L17.0768 10.3539C17.2109 10.488 17.2109 10.7059 17.0768 10.84L9.7845 18.1323C9.65044 18.2664 9.4325 18.2664 9.29844 18.1323L4.92319 13.7564Z" fill="currentColor"/>
</g>
<defs>
<clipPath id="clip0_174_1667">
<rect width="22" height="22" fill="white" transform="translate(0 0.5)"/>
</clipPath>
</defs>
</svg>
