<svg width="22" height="21" viewBox="0 0 22 21" fill="none" xmlns="http://www.w3.org/2000/svg">
<g clip-path="url(#clip0_169_1191)">
<path d="M16.8846 9.84615C16.829 9.84615 16.778 9.86054 16.7231 9.8625L15.5691 2.55119C15.5187 2.23408 15.2448 2 14.9237 2H12.9615C12.6 2 12.3077 2.29227 12.3077 2.65319V2.6545C12.3077 3.01542 12.6 3.30769 12.9609 3.30769H14.364L14.6164 4.907L9.55891 13.3717C9.25291 12.0771 8.39703 11.0087 7.25214 10.3993L8.38722 7.23077H9.03911C9.40003 7.23077 9.6923 6.9385 9.6923 6.57758V6.57627C9.6923 6.21535 9.40003 5.92308 9.03911 5.92308H6.42241C6.06149 5.92308 5.76922 6.21535 5.76922 6.57627V6.57758C5.76922 6.9385 6.06149 7.23077 6.42241 7.23077H6.9978L6.02749 9.93835C5.73261 9.87819 5.42791 9.84615 5.11538 9.84615C2.58761 9.84615 0.538452 11.8953 0.538452 14.4231C0.538452 16.9508 2.58761 19 5.11538 19C7.41888 19 9.30653 17.2922 9.62626 15.0769H9.6923C9.92245 15.0769 10.135 14.956 10.2533 14.7585L14.9348 6.92281L15.437 10.1018C13.6232 10.7105 12.3077 12.404 12.3077 14.4231C12.3077 16.9508 14.3568 19 16.8846 19C19.4124 19 21.4615 16.9508 21.4615 14.4231C21.4615 11.8953 19.4124 9.84615 16.8846 9.84615ZM8.31857 13.7692H6.04449L6.80753 11.6397C7.57057 12.1052 8.13418 12.8656 8.31857 13.7692ZM5.11538 17.6923C3.31272 17.6923 1.84614 16.2257 1.84614 14.4231C1.84614 12.6204 3.31272 11.1538 5.11538 11.1538C5.27295 11.1538 5.42399 11.1787 5.57568 11.2003L4.49945 14.2034C4.42753 14.4035 4.45761 14.6258 4.58053 14.7997C4.70345 14.9736 4.90157 15.0769 5.11472 15.0769H8.31857C8.01453 16.567 6.69441 17.6923 5.11538 17.6923ZM16.8846 17.6923C15.082 17.6923 13.6154 16.2257 13.6154 14.4231C13.6154 13.0605 14.4549 11.892 15.6423 11.4023L16.1366 14.5336C16.1634 14.7049 16.2576 14.8579 16.3975 14.9599C16.5374 15.0619 16.7126 15.1037 16.8846 15.0769C17.241 15.0207 17.4842 14.6859 17.428 14.3296L16.9271 11.1584C18.7101 11.182 20.1538 12.6355 20.1538 14.4231C20.1538 16.2257 18.6873 17.6923 16.8846 17.6923Z" fill="#495E57"/>
</g>
<defs>
<clipPath id="clip0_169_1191">
<rect width="21" height="21" fill="white" transform="translate(0.5)"/>
</clipPath>
</defs>
</svg>
