<svg width="33" height="32" viewBox="0 0 33 32" fill="none" xmlns="http://www.w3.org/2000/svg">
<g clip-path="url(#clip0_246_1123)">
<path d="M9.27997 0H22.72C27.84 0 32 4.16001 32 9.28003V22.72C32 25.1812 31.0224 27.5417 29.2821 29.282C27.5417 31.0224 25.1813 32 22.72 32H9.27997C4.15995 32 -6.10352e-05 27.84 -6.10352e-05 22.72V9.28003C-6.10352e-05 6.81881 0.977656 4.45839 2.718 2.71807C4.45833 0.977719 6.81875 0 9.27997 0ZM8.95996 3.20001C7.4323 3.20001 5.96722 3.80687 4.88702 4.88708C3.80681 5.96729 3.19995 7.43237 3.19995 8.96003V23.04C3.19995 26.224 5.77596 28.8 8.95996 28.8H23.04C24.5676 28.8 26.0327 28.1931 27.1129 27.1129C28.1932 26.0329 28.8 24.5677 28.8 23.04V8.96003C28.8 5.77602 26.224 3.20001 23.04 3.20001H8.95996ZM24.4 5.60002C24.9305 5.60002 25.4391 5.81074 25.8142 6.1858C26.1893 6.56087 26.4 7.06958 26.4 7.60002C26.4 8.13045 26.1893 8.63916 25.8142 9.01424C25.4391 9.38931 24.9305 9.60003 24.4 9.60003C23.8695 9.60003 23.3609 9.38931 22.9858 9.01424C22.6107 8.63916 22.4 8.13045 22.4 7.60002C22.4 7.06958 22.6107 6.56087 22.9858 6.1858C23.3609 5.81074 23.8695 5.60002 24.4 5.60002ZM16 8.00002C18.1217 8.00002 20.1566 8.84288 21.6569 10.3432C23.1573 11.8435 24 13.8783 24 16C24 18.1218 23.1573 20.1566 21.6569 21.6569C20.1566 23.1572 18.1217 24 16 24C13.8782 24 11.8434 23.1572 10.3431 21.6569C8.84282 20.1566 7.99996 18.1218 7.99996 16C7.99996 13.8783 8.84282 11.8435 10.3431 10.3432C11.8434 8.84288 13.8782 8.00002 16 8.00002ZM16 11.2C14.727 11.2 13.506 11.7057 12.6059 12.6059C11.7057 13.5061 11.2 14.727 11.2 16C11.2 17.2731 11.7057 18.494 12.6059 19.3942C13.506 20.2943 14.727 20.8 16 20.8C17.273 20.8 18.4939 20.2943 19.3941 19.3942C20.2943 18.494 20.8 17.2731 20.8 16C20.8 14.727 20.2943 13.5061 19.3941 12.6059C18.4939 11.7057 17.273 11.2 16 11.2Z" fill="white"/>
</g>
<defs>
<clipPath id="clip0_246_1123">
<rect width="32" height="32" fill="white" transform="translate(0.5)"/>
</clipPath>
</defs>
</svg>
