<svg width="22" height="23" viewBox="0 0 22 23" fill="none" xmlns="http://www.w3.org/2000/svg">
<g clip-path="url(#clip0_154_527)">
<path d="M11.8914 8.61043V5.45545C11.8914 5.45545 11.1957 5.8033 10.5 5.8033C9.80428 5.8033 9.10858 5.45545 9.10858 5.45545V8.61043C3.61954 8.78157 -0.631165 9.95034 -0.631165 11.3689V19.8675C-0.631165 20.2599 -0.410629 20.6195 -0.0606939 20.7983C3.0595 22.3859 8.97918 22.5 10.5 22.5C12.0208 22.5 17.9404 22.3859 21.0606 20.7983C21.4099 20.6202 21.6311 20.2599 21.6311 19.8675V11.3689C21.6311 9.95034 17.3804 8.78157 11.8914 8.61043ZM9.10858 10.0011V11.0593C9.51904 11.2513 9.99072 11.3689 10.5 11.3689C11.0092 11.3689 11.4809 11.2513 11.8914 11.06V10.0018C16.0356 10.1333 18.7781 10.8297 19.8606 11.3696C18.6612 11.9672 15.4283 12.761 10.5 12.761C5.57166 12.761 2.33876 11.9665 1.13938 11.3689C2.22188 10.8297 4.96432 10.1326 9.10858 10.0011ZM20.2397 19.7638C16.9992 21.0098 11.8969 21.1086 10.5 21.1086C9.10301 21.1086 4.00078 21.0098 0.760227 19.7638V18.3724C4.00078 19.6184 9.10301 19.7172 10.5 19.7172C11.8969 19.7172 16.9992 19.6184 20.2397 18.3724V19.7638ZM20.2397 16.981C16.9992 18.227 11.8969 18.3258 10.5 18.3258C9.10301 18.3258 4.00078 18.227 0.760227 16.981V15.5897C4.00078 16.8356 9.10301 16.9344 10.5 16.9344C11.8969 16.9344 16.9992 16.8356 20.2397 15.5897V16.981ZM10.5 15.543C9.10301 15.543 4.00078 15.4443 0.760227 14.1983V12.715C2.65809 13.5714 6.30701 14.1516 10.5 14.1516C14.6929 14.1516 18.3419 13.5714 20.2397 12.715V14.1983C16.9992 15.4443 11.8969 15.543 10.5 15.543ZM10.5083 4.4119C7.9906 4.4119 9.49956 1.71678 10.1897 0.657929C10.2537 0.559836 10.3622 0.500702 10.4798 0.500006C10.5974 0.49931 10.7059 0.557749 10.7706 0.655146C11.4739 1.7126 13.0233 4.4119 10.5083 4.4119Z" fill="#495E57"/>
</g>
<defs>
<clipPath id="clip0_154_527">
<rect width="22" height="22" fill="white" transform="translate(0 0.5)"/>
</clipPath>
</defs>
</svg>
