<svg width="22" height="22" viewBox="0 0 22 22" fill="none" xmlns="http://www.w3.org/2000/svg">
<g clip-path="url(#clip0_206_1243)">
<path d="M13.6874 8.83369L13.8538 9.00006C13.9879 9.13412 13.9879 9.35206 13.8538 9.48612L12.0065 11.3334C11.8724 11.4675 11.6545 11.4675 11.5204 11.3334L11.3541 11.1671C11.22 11.033 11.22 10.8151 11.3541 10.681L13.2014 8.83369C13.3354 8.69962 13.5534 8.69962 13.6874 8.83369ZM20.2709 2.58294L20.1046 2.41656C19.9705 2.2825 19.7526 2.2825 19.6185 2.41656L17.7712 4.26387C17.6371 4.39794 17.6371 4.61587 17.7712 4.74994L17.9376 4.91631C18.0716 5.05037 18.2896 5.05037 18.4236 4.91631L20.2709 3.069C20.405 2.93494 20.405 2.717 20.2709 2.58294ZM9.625 6.75744V6.99256C9.625 7.18231 9.779 7.33631 9.96875 7.33631H12.5812C12.771 7.33631 12.925 7.18231 12.925 6.99256V6.75744C12.925 6.56769 12.771 6.41369 12.5812 6.41369H9.96875C9.779 6.41369 9.625 6.56769 9.625 6.75744ZM21.6562 6.41369H19.0438C18.854 6.41369 18.7 6.56769 18.7 6.75744V6.99256C18.7 7.18231 18.854 7.33631 19.0438 7.33631H21.6562C21.846 7.33631 22 7.18231 22 6.99256V6.75744C22 6.56769 21.846 6.41369 21.6562 6.41369ZM12.0065 2.41656C11.8724 2.2825 11.6545 2.2825 11.5204 2.41656L11.3541 2.58294C11.22 2.717 11.22 2.93494 11.3541 3.069L13.2014 4.91631C13.3354 5.05037 13.5534 5.05037 13.6874 4.91631L13.8538 4.74994C13.9879 4.61587 13.9879 4.39794 13.8538 4.26387L12.0065 2.41656ZM17.9376 8.83369L17.7712 9.00006C17.6371 9.13412 17.6371 9.35206 17.7712 9.48612L19.6185 11.3334C19.7526 11.4675 19.9705 11.4675 20.1046 11.3334L20.2709 11.1671C20.405 11.033 20.405 10.8151 20.2709 10.681L18.4236 8.83369C18.2896 8.69962 18.0716 8.69962 17.9376 8.83369ZM15.9301 3.9875C16.1198 3.9875 16.2738 3.8335 16.2738 3.64375V1.03125C16.2738 0.8415 16.1198 0.6875 15.9301 0.6875H15.6949C15.5052 0.6875 15.3512 0.8415 15.3512 1.03125V3.64375C15.3512 3.8335 15.5052 3.9875 15.6949 3.9875H15.9301ZM15.6949 9.7625C15.5052 9.7625 15.3512 9.9165 15.3512 10.1062V12.7187C15.3512 12.9085 15.5052 13.0625 15.6949 13.0625H15.9301C16.1198 13.0625 16.2738 12.9085 16.2738 12.7187V10.1062C16.2738 9.9165 16.1198 9.7625 15.9301 9.7625H15.6949ZM13.75 6.875C13.75 8.01419 14.6733 8.9375 15.8125 8.9375C16.9517 8.9375 17.875 8.01419 17.875 6.875C17.875 5.73581 16.9517 4.8125 15.8125 4.8125C14.6733 4.8125 13.75 5.73581 13.75 6.875Z" fill="#495E57"/>
<path d="M5.5 18.9585V14.4375H8.53738C8.73881 14.4375 8.93063 14.3488 9.06125 14.1955C9.19188 14.0415 9.24894 13.838 9.21663 13.6393C8.90725 11.7432 6.48381 10.6562 4.8125 10.6562C3.14119 10.6562 0.71775 11.7432 0.408375 13.6393C0.376063 13.8387 0.432438 14.0422 0.563063 14.1955C0.693688 14.3488 0.8855 14.4375 1.08763 14.4375H4.125V18.9812V19.4769H0V21.3125H4.78294H5.99431H22V19.4769H5.5V18.9585Z" fill="#495E57"/>
</g>
<defs>
<clipPath id="clip0_206_1243">
<rect width="22" height="22" fill="white"/>
</clipPath>
</defs>
</svg>
