<svg width="22" height="23" viewBox="0 0 22 23" fill="none" xmlns="http://www.w3.org/2000/svg">
<g clip-path="url(#clip0_154_797)">
<path d="M11.0639 8.93977C10.315 9.68861 9.29939 10.1093 8.24072 10.1093C6.74304 10.1093 5.30677 10.7042 4.2481 11.7629L-0.086831 16.0978C-0.638049 16.649 -0.638049 17.5426 -0.086831 18.0938L3.90579 22.0864C4.18175 22.3624 4.54241 22.5 4.90377 22.5C5.26513 22.5 5.62649 22.3624 5.90175 22.0864L10.2367 17.7515C11.2954 16.6928 11.8903 15.2565 11.8903 13.7589C11.8903 12.7002 12.311 11.6846 13.0598 10.9357L16.0996 7.89591C16.3198 7.67571 16.3198 7.31788 16.0996 7.09767L14.9019 5.89996C14.6817 5.67975 14.3239 5.67975 14.1037 5.89996L11.0639 8.93977ZM10.4795 13.7596C10.4795 14.8909 10.0391 15.9539 9.2394 16.7542L4.90448 21.0891L0.911854 17.0965L5.24678 12.7616C6.04643 11.9619 7.11005 11.5215 8.24142 11.5215C9.68475 11.5215 11.042 10.9597 12.0625 9.93845C11.0413 10.959 10.4795 12.3162 10.4795 13.7596ZM20.6802 2.68511L17.2677 4.73259L19.3152 1.32012C19.5347 0.954525 19.8932 0.669388 20.2786 0.555051C20.6639 0.440008 21.0295 0.509175 21.2603 0.740672C21.4911 0.97217 21.5603 1.33706 21.4459 1.72242C21.3309 2.10707 21.0458 2.46561 20.6802 2.68511ZM21.5003 6.87535C21.5003 7.10685 21.3429 7.32352 21.0775 7.45903C20.8121 7.59454 20.4713 7.63124 20.1607 7.55784L17.2656 6.87535L20.1614 6.19286C20.472 6.11945 20.8129 6.15686 21.0782 6.29167C21.3429 6.42718 21.5003 6.64385 21.5003 6.87535ZM15.7453 0.922765C15.8808 1.18814 15.9175 1.52903 15.8441 1.83958L15.1616 4.73471L14.4791 1.83887C14.4057 1.52833 14.4431 1.18743 14.578 0.922059C14.7135 0.65739 14.9308 0.5 15.1616 0.5C15.3931 0.5 15.6105 0.65739 15.7453 0.922765ZM7.17216 16.2559C7.39236 16.4761 7.39236 16.834 7.17216 17.0542L5.39147 18.8349C5.17126 19.0551 4.81343 19.0551 4.59322 18.8349L3.02215 17.2638C2.80194 17.0436 2.80194 16.6858 3.02215 16.4655L4.80284 14.6849C5.02305 14.4646 5.38088 14.4646 5.60108 14.6849L7.17216 16.2559Z" fill="#495E57"/>
</g>
<defs>
<clipPath id="clip0_154_797">
<rect width="22" height="22" fill="white" transform="translate(0 0.5)"/>
</clipPath>
</defs>
</svg>
