<svg width="33" height="32" viewBox="0 0 33 32" fill="none" xmlns="http://www.w3.org/2000/svg">
<g clip-path="url(#clip0_247_1163)">
<path d="M12.23 21.5715L22.013 16L12.23 10.4286V21.5715ZM34.0206 7.03C34.2658 7.90285 34.4353 9.07285 34.5484 10.5586C34.6805 12.0443 34.7369 13.3257 34.7369 14.44L34.85 16C34.85 20.0672 34.5484 23.0572 34.0206 24.97C33.5495 26.6415 32.4562 27.7185 30.7597 28.1828C29.8736 28.4244 28.2525 28.5915 25.7643 28.7028C23.3138 28.8328 21.0707 28.8885 18.9972 28.8885L16 29C8.10187 29 3.18202 28.7028 1.24047 28.1828C-0.456025 27.7185 -1.54933 26.6415 -2.02058 24.97C-2.26563 24.0972 -2.43528 22.9272 -2.54838 21.4415C-2.68033 19.9557 -2.73688 18.6743 -2.73688 17.56L-2.84998 16C-2.84998 11.9328 -2.54838 8.94285 -2.02058 7.03C-1.54933 5.35856 -0.456025 4.28144 1.24047 3.81715C2.12642 3.57572 3.74752 3.40856 6.23572 3.29715C8.68622 3.16715 10.9294 3.11144 13.0029 3.11144L16 3C23.8983 3 28.818 3.29715 30.7597 3.81715C32.4562 4.28144 33.5495 5.35856 34.0206 7.03Z" fill="white"/>
</g>
<defs>
<clipPath id="clip0_247_1163">
<rect width="32" height="32" fill="white" transform="translate(0.5)"/>
</clipPath>
</defs>
</svg>
