<svg width="42" height="27" viewBox="0 0 42 27" fill="none" xmlns="http://www.w3.org/2000/svg">
<g clip-path="url(#clip0_137_862)">
<path d="M17.8659 4.46047C17.662 3.64384 16.9835 3.03265 16.1508 2.91563L10.7268 2.15334C9.89353 2.03622 9.07122 2.43857 8.6513 3.16893C6.87343 6.26538 3.0946 14.3618 10.8718 16.0061L9.90413 22.8911C8.13888 22.7659 6.38942 23.131 5.49128 23.3664C5.42783 23.3832 5.38616 23.4426 5.38874 23.5082C5.39277 23.5734 5.44219 23.6268 5.50755 23.636L15.1267 24.9879C15.1921 24.9971 15.2543 24.9593 15.2768 24.8979C15.2981 24.8356 15.2737 24.767 15.2173 24.7334C14.4433 24.2733 12.934 23.4731 11.2652 23.0914L12.2323 16.2098C20.1923 16.9043 18.7358 7.95266 17.8659 4.46047ZM7.80317 8.68501C8.15924 7.23823 8.84523 5.59275 9.84282 3.8543C9.98422 3.60896 10.2563 3.47573 10.5355 3.51496L15.9595 4.27725C16.2386 4.31648 16.4635 4.51956 16.5321 4.79233C17.017 6.74122 17.2324 8.51338 17.1908 10.0044L7.80317 8.68501Z" fill="#495E57"/>
</g>
<g clip-path="url(#clip1_137_862)">
<path d="M30.973 3.22128C30.5267 2.50761 29.6926 2.136 28.8646 2.28201L23.4705 3.23313C22.6418 3.37926 21.984 4.01602 21.8103 4.84039C21.0763 8.33469 19.9844 17.2026 27.889 16.3631L29.0963 23.2101C27.3788 23.6366 25.8278 24.5244 25.0464 25.0259C24.9912 25.0614 24.9699 25.1308 24.9927 25.1924C25.0166 25.2531 25.0801 25.2887 25.1451 25.2772L34.7113 23.5905C34.7763 23.579 34.8238 23.5239 34.8262 23.4585C34.8272 23.3927 34.7828 23.3349 34.7188 23.3204C33.8405 23.122 32.1578 22.8274 30.4527 22.9801L29.246 16.1364C37.0309 14.3371 32.8795 6.27371 30.973 3.22128ZM22.7083 10.3486C22.5999 8.86259 22.7438 7.08566 23.1553 5.12402C23.214 4.847 23.4316 4.63619 23.7092 4.58724L29.1033 3.63612C29.3809 3.58717 29.6575 3.71083 29.8071 3.94905C30.8705 5.65271 31.623 7.27157 32.0442 8.70241L22.7083 10.3486Z" fill="#495E57"/>
</g>
<defs>
<clipPath id="clip0_137_862">
<rect width="22" height="22" fill="white" transform="translate(3.0618 1.07611) rotate(8)"/>
</clipPath>
<clipPath id="clip1_137_862">
<rect width="22" height="22" fill="white" transform="translate(15.8477 4.57721) rotate(-10)"/>
</clipPath>
</defs>
</svg>
