<svg width="40" height="30" viewBox="0 0 40 30" fill="none" xmlns="http://www.w3.org/2000/svg">
<path fill-rule="evenodd" clip-rule="evenodd" d="M2.46978 2C1.65805 2 1 2.62184 1 3.38889C1 4.15595 1.65805 4.77778 2.46978 4.77778H37.7445C38.5561 4.77778 39.2143 4.15595 39.2143 3.38889C39.2143 2.62184 38.5561 2 37.7445 2H2.46978ZM1 14.5C1 13.7329 1.65805 13.1111 2.46978 13.1111H37.7445C38.5561 13.1111 39.2143 13.7329 39.2143 14.5C39.2143 15.2671 38.5561 15.8889 37.7445 15.8889H2.46978C1.65805 15.8889 1 15.2671 1 14.5ZM1 25.6111C1 24.8442 1.65805 24.2222 2.46978 24.2222H37.7445C38.5561 24.2222 39.2143 24.8442 39.2143 25.6111C39.2143 26.3781 38.5561 27 37.7445 27H2.46978C1.65805 27 1 26.3781 1 25.6111Z" fill="#495E57"/>
</svg>
