<svg width="22" height="23" viewBox="0 0 22 23" fill="none" xmlns="http://www.w3.org/2000/svg">
<g clip-path="url(#clip0_204_847)">
<path d="M17.375 0.548125V0.5H16.8882H16H13.25H11.875H9.125H7.75H5H4.11175H3.625V0.548125C2.70375 0.713812 1.9145 1.33875 1.55837 2.22837L-0.5 7.375C-0.5 8.39044 0.0561875 9.267 0.875 9.74344V19.0625C0.875 20.9607 2.41431 22.5 4.3125 22.5H16.6875C18.5857 22.5 20.125 20.9607 20.125 19.0625V9.74344C20.9438 9.267 21.5 8.39044 21.5 7.375L19.4416 2.22837C19.0855 1.33875 18.2963 0.713812 17.375 0.548125ZM18.1649 2.73919L20.0191 7.375H17.375V1.963C17.7291 2.09569 18.0178 2.37206 18.1649 2.73919ZM13.25 1.875H16V7.375H13.25V1.875ZM9.125 1.875H11.875V7.375H9.125V1.875ZM5 1.875H7.75V7.375H5V1.875ZM2.83506 2.73919C2.98219 2.37206 3.27094 2.09569 3.625 1.963V7.375H0.980875L2.83506 2.73919ZM7.75 21.125V14.25H13.25V21.125H7.75ZM18.75 19.0625C18.75 20.1996 17.8246 21.125 16.6875 21.125H14.625V14.25C14.625 13.4903 14.0097 12.875 13.25 12.875H7.75C6.99031 12.875 6.375 13.4903 6.375 14.25V21.125H4.3125C3.17537 21.125 2.25 20.1996 2.25 19.0625V10.125C3.07638 10.125 3.80856 9.75306 4.3125 9.17625C4.81644 9.75306 5.54862 10.125 6.375 10.125C7.20138 10.125 7.93356 9.75306 8.4375 9.17625C8.94144 9.75306 9.67362 10.125 10.5 10.125C11.3264 10.125 12.0586 9.75306 12.5625 9.17625C13.0664 9.75306 13.7986 10.125 14.625 10.125C15.4514 10.125 16.1836 9.75306 16.6875 9.17625C17.1914 9.75306 17.9236 10.125 18.75 10.125V19.0625Z" fill="#495E57"/>
</g>
<defs>
<clipPath id="clip0_204_847">
<rect width="22" height="22" fill="white" transform="translate(0 0.5)"/>
</clipPath>
</defs>
</svg>
