<svg width="33" height="32" viewBox="0 0 33 32" fill="none" xmlns="http://www.w3.org/2000/svg">
<path d="M12.2434 20.1903L13.7169 19.8499C13.7479 19.8427 13.7991 19.8309 13.8616 19.8108C14.2682 19.7014 14.6166 19.4385 14.8334 19.0773C15.0503 18.7161 15.1187 18.2848 15.0243 17.8744C15.0222 17.8655 15.0202 17.8569 15.0181 17.8479C14.9697 17.6512 14.885 17.4653 14.7681 17.2999C14.603 17.0904 14.3987 16.9152 14.1665 16.7839C13.8933 16.6281 13.6072 16.4956 13.3116 16.388L11.696 15.7982C10.7893 15.4611 9.88276 15.1325 8.9676 14.8121C8.37416 14.6008 7.8713 14.4156 7.43437 14.2804C7.35195 14.2549 7.26092 14.2296 7.18702 14.204C6.65879 14.0422 6.28762 13.9751 5.9736 13.9729C5.76383 13.9652 5.55488 14.0032 5.36123 14.0845C5.15943 14.1715 4.97819 14.3002 4.82938 14.462C4.75538 14.5461 4.68582 14.6341 4.62088 14.7255C4.56001 14.8186 4.50423 14.915 4.45369 15.014C4.39798 15.1204 4.35016 15.2306 4.31058 15.3438C4.01069 16.2302 3.86133 17.1605 3.86867 18.0961C3.87401 18.942 3.89674 20.0276 4.36166 20.7635C4.4737 20.9523 4.62405 21.1155 4.80303 21.2426C5.13416 21.4714 5.46892 21.5015 5.81709 21.5266C6.33743 21.5639 6.84157 21.4361 7.34407 21.32L12.2393 20.189L12.2434 20.1903Z" fill="white"/>
<path d="M28.6825 12.3672C28.2801 11.5229 27.7392 10.7521 27.0823 10.0868C26.9974 10.0023 26.9063 9.92418 26.81 9.85299C26.721 9.78623 26.6285 9.72419 26.5331 9.66704C26.4349 9.61324 26.3339 9.56469 26.2306 9.52167C26.0262 9.44142 25.8072 9.40528 25.5879 9.41552C25.3782 9.42747 25.1736 9.4849 24.9882 9.58389C24.7072 9.72365 24.4031 9.94809 23.9987 10.3241C23.9428 10.3796 23.8727 10.4422 23.8096 10.5012C23.4759 10.815 23.1048 11.2017 22.663 11.6521C21.9807 12.3417 21.3087 13.035 20.6409 13.7359L19.446 14.975C19.2271 15.2015 19.0279 15.446 18.8503 15.7061C18.6991 15.926 18.5921 16.1731 18.5353 16.4339C18.5024 16.6339 18.5072 16.8382 18.5495 17.0364C18.5516 17.0454 18.5535 17.0539 18.5556 17.0628C18.65 17.4733 18.8999 17.831 19.2527 18.0605C19.6055 18.2901 20.0336 18.3737 20.4469 18.2936C20.5124 18.2841 20.5632 18.2729 20.5941 18.2653L26.965 16.7933C27.4671 16.6773 27.9766 16.5709 28.4277 16.3091C28.7302 16.1336 29.018 15.9597 29.2153 15.6089C29.3208 15.4162 29.3847 15.2034 29.4028 14.9844C29.5005 14.1162 29.0471 13.1301 28.6825 12.3672Z" fill="white"/>
<path d="M17.2797 15.0463C17.7414 14.4663 17.7402 13.6018 17.7815 12.895C17.9205 10.5337 18.0668 8.17207 18.1828 5.80943C18.2271 4.91453 18.3235 4.03176 18.2703 3.13007C18.2264 2.3862 18.221 1.53213 17.7514 0.921674C16.9223 -0.15482 15.1545 -0.0663453 13.9483 0.100637C13.5788 0.151926 13.2087 0.220881 12.8415 0.309025C12.4743 0.397168 12.111 0.493435 11.7555 0.607302C10.598 0.986416 8.97096 1.68232 8.69543 3.01592C8.5401 3.76984 8.90819 4.54104 9.19368 5.22908C9.53976 6.06311 10.0126 6.81439 10.4434 7.59948C11.5825 9.67216 12.7427 11.7319 13.8997 13.7938C14.2452 14.4093 14.6219 15.1889 15.2903 15.5078C15.3345 15.5271 15.3796 15.5442 15.4255 15.559C15.7252 15.6725 16.052 15.6943 16.3643 15.6218C16.3831 15.6174 16.4016 15.6132 16.42 15.6089C16.7084 15.5305 16.9695 15.3737 17.1744 15.1559C17.2114 15.1212 17.2466 15.0847 17.2797 15.0463Z" fill="white"/>
<path d="M16.7271 21.368C16.5469 21.1145 16.2911 20.9245 15.9965 20.8252C15.7018 20.7258 15.3832 20.7224 15.0862 20.8152C15.0165 20.8383 14.9486 20.8666 14.8829 20.8996C14.7814 20.9513 14.6844 21.0117 14.5933 21.0801C14.3278 21.2768 14.1042 21.5325 13.9006 21.7887C13.849 21.8541 13.8018 21.9411 13.7404 21.997L12.7156 23.4066C12.1348 24.1963 11.562 24.988 10.994 25.7923C10.6234 26.3115 10.3028 26.75 10.0496 27.1379C10.0016 27.211 9.95179 27.2926 9.90614 27.3575C9.60263 27.8272 9.43081 28.1698 9.34259 28.4751C9.27629 28.6779 9.25528 28.8928 9.28109 29.1046C9.30935 29.3252 9.38362 29.5373 9.4991 29.7272C9.56051 29.8225 9.62672 29.9147 9.69746 30.0033C9.77091 30.0885 9.84899 30.1697 9.93123 30.2465C10.0191 30.3303 10.113 30.4074 10.2124 30.4774C10.9197 30.9694 11.694 31.323 12.5084 31.5963C13.1863 31.8213 13.8907 31.956 14.6038 31.9967C14.7251 32.0029 14.8468 32.0003 14.9677 31.9888C15.0797 31.9791 15.1912 31.9635 15.3017 31.942C15.4121 31.9162 15.521 31.8846 15.628 31.8472C15.8363 31.7693 16.0258 31.6486 16.1846 31.4929C16.3349 31.3423 16.4505 31.1609 16.5235 30.9611C16.6419 30.6658 16.7198 30.291 16.7711 29.7344C16.7755 29.6552 16.7868 29.5603 16.7947 29.4733C16.8351 29.0115 16.8537 28.4691 16.8834 27.8313C16.9335 26.8504 16.9728 25.8739 17.0039 24.8946C17.0039 24.8946 17.0699 23.1541 17.0697 23.1532C17.0847 22.7521 17.0724 22.3077 16.9612 21.9084C16.9123 21.717 16.8333 21.5346 16.7271 21.368Z" fill="white"/>
<path d="M28.2942 24.0929C28.0803 23.8584 27.7773 23.6246 27.2992 23.3355C27.2303 23.297 27.1494 23.2457 27.0748 23.2009C26.6768 22.9616 26.1974 22.7098 25.6374 22.4056C24.7771 21.9333 23.9163 21.4728 23.0473 21.0162L21.5118 20.2019C21.4322 20.1787 21.3513 20.1212 21.2764 20.085C20.9814 19.9439 20.6687 19.8122 20.3441 19.7518C20.2322 19.7303 20.1187 19.7186 20.0048 19.7167C19.9313 19.7158 19.858 19.7202 19.7851 19.73C19.4781 19.7775 19.194 19.9209 18.9731 20.1396C18.7522 20.3581 18.6058 20.641 18.5549 20.9477C18.5314 21.1427 18.5386 21.3401 18.576 21.5329C18.6511 21.9415 18.8335 22.3457 19.0222 22.6997L19.8422 24.2364C20.2984 25.1032 20.7602 25.9648 21.2335 26.8238C21.5388 27.3842 21.793 27.8637 22.031 28.2611C22.0761 28.3358 22.1273 28.4164 22.1659 28.4856C22.4556 28.9633 22.6884 29.264 22.9244 29.4798C23.0773 29.6274 23.2606 29.7398 23.4614 29.8092C23.6725 29.8791 23.8958 29.9039 24.1172 29.882C24.2297 29.8686 24.3415 29.8493 24.452 29.8241C24.5608 29.7948 24.6681 29.7599 24.7732 29.7195C24.8868 29.6768 24.9971 29.6258 25.1034 29.567C25.7267 29.2176 26.3012 28.7874 26.8122 28.2876C27.4251 27.6845 27.9669 27.0269 28.3882 26.274C28.4468 26.1675 28.4975 26.0569 28.5401 25.9431C28.5798 25.8377 28.6142 25.7304 28.643 25.6216C28.668 25.5109 28.6871 25.3992 28.7003 25.2865C28.7212 25.0654 28.6955 24.8423 28.6249 24.6318C28.5554 24.4301 28.4425 24.2462 28.2942 24.0929Z" fill="white"/>
</svg>
