<svg width="40" height="40" viewBox="0 0 40 40" fill="none" xmlns="http://www.w3.org/2000/svg">
<circle cx="20" cy="20" r="20" fill="#495E57"/>
<path d="M18.12 17.46L16.54 19.08H27.02C27.68 19.08 28.22 19.62 28.22 20.28C28.22 20.98 27.68 21.52 27.02 21.52H16.7L18.1 22.94C18.5 23.36 18.64 23.74 18.64 24.06C18.64 24.66 18.06 25.04 17.46 25.04C17.14 25.04 16.78 24.92 16.5 24.64L13.54 21.66C13.16 21.26 12.96 20.76 12.96 20.24C12.96 19.74 13.16 19.2 13.56 18.8L16.54 15.78C16.82 15.48 17.16 15.36 17.5 15.36C18.1 15.36 18.68 15.74 18.68 16.36C18.68 16.66 18.52 17.04 18.12 17.46Z" fill="white"/>
</svg>
